<?xml version="1.0" encoding="iso-8859-1"?>
<!-- Generator: Adobe Illustrator 19.0.0, SVG Export Plug-In . SVG Version: 6.00 Build 0)  -->
<svg version="1.1" id="Capa_1" xmlns="http://www.w3.org/2000/svg" xmlns:xlink="http://www.w3.org/1999/xlink" x="0px" y="0px"
	 viewBox="0 0 512.019 512.019" style="enable-background:new 0 0 512.019 512.019;" xml:space="preserve" height="40" width="40">
<path style="fill:#CFD8DC;" d="M256.019,394.679c0.119-64.185,44.226-119.919,106.667-134.784V10.679
	c0-5.891-4.776-10.667-10.667-10.667H138.686c-5.891,0-10.667,4.776-10.667,10.667v117.333H10.686
	c-5.891,0-10.667,4.776-10.667,10.667v320c0,5.891,4.776,10.667,10.667,10.667h267.349
	C263.667,447.092,256.023,421.167,256.019,394.679z"/>
<circle style="fill:#2196F3;" cx="394.686" cy="394.679" r="117.333"/>
<g>
	<path style="fill:#FAFAFA;" d="M437.352,405.345h-85.333c-5.891,0-10.667-4.776-10.667-10.667s4.776-10.667,10.667-10.667h85.333
		c5.891,0,10.667,4.776,10.667,10.667S443.243,405.345,437.352,405.345z"/>
	<path style="fill:#FAFAFA;" d="M394.686,448.012c-5.891,0-10.667-4.776-10.667-10.667v-85.333c0-5.891,4.776-10.667,10.667-10.667
		c5.891,0,10.667,4.776,10.667,10.667v85.333C405.352,443.236,400.577,448.012,394.686,448.012z"/>
</g>
<path style="fill:#B0BEC5;" d="M142.76,0.823c-3.985-1.654-8.574-0.745-11.627,2.304l-128,128
	c-4.171,4.16-4.179,10.914-0.019,15.085c2.006,2.011,4.731,3.139,7.571,3.134h128c5.891,0,10.667-4.776,10.667-10.667v-128
	C149.352,6.362,146.75,2.471,142.76,0.823z"/>
<g>
</g>
<g>
</g>
<g>
</g>
<g>
</g>
<g>
</g>
<g>
</g>
<g>
</g>
<g>
</g>
<g>
</g>
<g>
</g>
<g>
</g>
<g>
</g>
<g>
</g>
<g>
</g>
<g>
</g>
</svg>
